<svg xmlns="http://www.w3.org/2000/svg" viewBox="0 0 500 500"><g id="freepik--background-complete--inject-722"><rect y="382.4" width="500" height="0.25" style="fill:#ebebeb"></rect><rect x="435" y="398.49" width="14.9" height="0.25" style="fill:#ebebeb"></rect><rect x="322.53" y="401.21" width="8.69" height="0.25" style="fill:#ebebeb"></rect><rect x="396.59" y="389.21" width="34.19" height="0.25" style="fill:#ebebeb"></rect><rect x="66.44" y="394.37" width="43.19" height="0.25" style="fill:#ebebeb"></rect><rect x="118.53" y="394.37" width="15.58" height="0.25" style="fill:#ebebeb"></rect><rect x="161.08" y="391.01" width="93.68" height="0.25" style="fill:#ebebeb"></rect><path d="M237,337.8H43.91a5.71,5.71,0,0,1-5.7-5.71V60.66A5.71,5.71,0,0,1,43.91,55H237a5.71,5.71,0,0,1,5.71,5.71V332.09A5.71,5.71,0,0,1,237,337.8ZM43.91,55.2a5.46,5.46,0,0,0-5.45,5.46V332.09a5.46,5.46,0,0,0,5.45,5.46H237a5.47,5.47,0,0,0,5.46-5.46V60.66A5.47,5.47,0,0,0,237,55.2Z" style="fill:#ebebeb"></path><path d="M453.31,337.8H260.21a5.72,5.72,0,0,1-5.71-5.71V60.66A5.72,5.72,0,0,1,260.21,55h193.1A5.71,5.71,0,0,1,459,60.66V332.09A5.71,5.71,0,0,1,453.31,337.8ZM260.21,55.2a5.47,5.47,0,0,0-5.46,5.46V332.09a5.47,5.47,0,0,0,5.46,5.46h193.1a5.47,5.47,0,0,0,5.46-5.46V60.66a5.47,5.47,0,0,0-5.46-5.46Z" style="fill:#ebebeb"></path><path d="M439.8,378c5.33-1.46.93-2,1.16-8.18.11-3,2.19-6.58.68-10.45-1.15-3-5.84-4.08-8.52-7.3-2.1-2.51-2.53-6.53-5.83-9.09-2.66-2.06-3.71-7.29-7.29-9.32-3-1.7-6.95-2.86-10.66-4.51-3.19-1.42-8.72,2.19-12.5.84-3.32-1.2-5.32-6.89-9.13-8-3.41-1-7.11-2-10.94-3-3.47-.87-8.34,3.9-12.17,3.08-3.52-.75-6.62-4.07-10.46-4.77-3.55-.65-7.13-1.84-11-2.44-3.58-.56-7.54,1.27-11.38.75-3.68-.49-7-4.81-10.67-5.1s-7.45-2.31-11.15-2.42-7.41,2.4-11.11,2.46-7.1,3.19-10.78,3.42-7.71-2.69-11.37-2.31-6.59,4.86-10.22,5.37-8.83-6.27-12.44-5.63-6.56,4.41-10.13,5.17-7.66.08-11.2,1-7.52.82-11,1.79-7.19,1.95-10.65,3-5,7.49-8.4,8.64-7.37,1.24-10.74,2.47-6.14,4.11-9.46,5.41-8.37-.55-11.63.82c-3.45,1.45-5,6.39-8.19,7.82-3.45,1.53-8,.61-11.14,2.09-3.45,1.64-5.15,5.91-8.2,7.44-3.49,1.75-8.76-.09-11.68,1.46-3.65,1.95-7,3.49-9.64,5-6,3.4-14,4.08-8.68,5.78s5.32-1.29,10.78-1.12,5.45,3,10.9,3.18,5.46-.44,10.92-.27,5.45,1.74,10.9,1.91,5.46.64,10.91.81,5.47-4.28,10.92-4.1,5.45,5.59,10.9,5.76,5.46-3.59,10.92-3.42,5.46-.18,10.91,0,5.46-2.63,10.92-2.46,5.45.22,10.9.39,5.45,2,10.91,2.14,5.44,5.55,10.9,5.72,5.45-.3,10.91-.13,5.46-1.94,10.91-1.77,5.46-3.94,10.92-3.76,5.44,6,10.9,6.14,5.47-6.5,10.93-6.33,5.44,5.52,10.9,5.69,5.46-1.95,10.91-1.77,5.46,2.09,10.91,2.26,5.47-3.16,10.92-3,5.45,5.34,10.91,5.52,5.45,1.25,10.91,1.43,5.46-2.36,10.91-2.19,5.46-2.64,10.92-2.46,5.46.29,10.92.46,5.45,1.22,10.91,1.4,5.52,2.21,11,2.2C434.88,381.49,434.6,379.46,439.8,378Z" style="fill:#e6e6e6"></path><path d="M449.9,382.4S435,339.89,343.67,327C232.11,311.26,103.9,382.4,103.9,382.4Z" style="fill:#f0f0f0"></path><polygon points="238.11 290.17 156.78 290.17 156.78 324.73 238.11 330.11 238.11 290.17" style="fill:#f0f0f0"></polygon><path d="M232.37,305.75H226v-8.51a3.18,3.18,0,0,1,3.19-3.18h0a3.18,3.18,0,0,1,3.18,3.18Z" style="fill:#fafafa"></path><path d="M211.11,305.75h-6.37v-8.51a3.18,3.18,0,0,1,3.19-3.18h0a3.18,3.18,0,0,1,3.18,3.18Z" style="fill:#fafafa"></path><path d="M189.85,305.75h-6.37v-8.51a3.18,3.18,0,0,1,3.19-3.18h0a3.18,3.18,0,0,1,3.18,3.18Z" style="fill:#fafafa"></path><path d="M168.59,305.75h-6.37v-8.51a3.18,3.18,0,0,1,3.19-3.18h0a3.18,3.18,0,0,1,3.18,3.18Z" style="fill:#fafafa"></path><rect x="238.11" y="290.17" width="25.11" height="53.28" style="fill:#e6e6e6"></rect><rect x="243.19" y="304.92" width="16.25" height="38.52" style="fill:#f0f0f0"></rect><rect x="134.11" y="276.13" width="24.22" height="55.89" style="fill:#f0f0f0"></rect><rect x="134.11" y="274.88" width="24.22" height="1.25" style="fill:#e0e0e0"></rect><polygon points="250 271.83 168.67 271.83 156.78 290.17 238.11 290.17 250 271.83" style="fill:#fafafa"></polygon><polygon points="238.11 290.17 250 271.83 263.22 290.17 238.11 290.17" style="fill:#f0f0f0"></polygon><path d="M253.65,297.5c0,1.9-1,3.44-2.33,3.44S249,299.4,249,297.5s1-3.44,2.33-3.44S253.65,295.6,253.65,297.5Z" style="fill:#f0f0f0"></path><path d="M146.22,262.77a12.11,12.11,0,0,0-12.11,12.11h24.22A12.11,12.11,0,0,0,146.22,262.77Z" style="fill:#f5f5f5"></path><circle cx="374.7" cy="115.97" r="33.83" style="fill:#f0f0f0"></circle><path d="M19.33,382.4s36.16-80.17,121.13-80.17c98.73,0,182.07,80.17,182.07,80.17Z" style="fill:#fafafa"></path><path d="M194,131.12a40.2,40.2,0,0,0-14.67,2.79c-1.33-3.7-7.18-6.3-15.34-6.3a39.67,39.67,0,0,0-15.73,3.24,43.66,43.66,0,0,0-17.52-3.24,68.5,68.5,0,0,0-31.06,7.68c-1.12-5.34-7.71-9.1-17.32-9.1-12.75,0-26,6.62-29.6,14.78-3.06,6.94,1.85,12.76,11.23,14.35a4.37,4.37,0,0,0-.22.43c-2.86,6.5,6.82,11.87,22.08,12.72,4.9,4.42,13.21,7.17,23.75,7.17a67.69,67.69,0,0,0,34.59-9.71,47.3,47.3,0,0,0,8.19.67c15.84,0,31.63-6.71,35.28-15a.42.42,0,0,1,0-.1c9.87-.69,19.13-5,21.42-10.15C211.64,135.71,204.87,131.12,194,131.12Z" style="fill:#fafafa"></path><path d="M439.47,129c0-.07.08-.14.11-.21,1.33-3-3.16-5.49-10.23-5.89-2.28-2-6.13-3.33-11-3.33a31.35,31.35,0,0,0-16,4.51,21.49,21.49,0,0,0-3.81-.32c-7.35,0-14.67,3.11-16.36,6.95,0,0,0,0,0,.05-4.57.31-8.87,2.3-9.93,4.7-1.16,2.63,2,4.75,7,4.75a18.58,18.58,0,0,0,6.8-1.29c.62,1.72,3.33,2.92,7.11,2.92a18.3,18.3,0,0,0,7.31-1.51,20.1,20.1,0,0,0,8.11,1.51,31.72,31.72,0,0,0,14.4-3.57c.52,2.48,3.57,4.23,8,4.23,5.92,0,12.06-3.07,13.73-6.85C446.11,132.42,443.82,129.72,439.47,129Z" style="fill:#fafafa"></path><path d="M398,183.86a40.05,40.05,0,0,0-14.68,2.8c-1.33-3.71-7.19-6.31-15.36-6.31-9.21,0-18.37,3.31-22.47,7.78-1.31-.07-2.66-.11-4.05-.11a83.59,83.59,0,0,0-12.52.95c-.53-5.84-7.31-10-17.47-10-12.78,0-26,6.62-29.64,14.8s3.83,14.79,16.6,14.79a39.42,39.42,0,0,0,7.34-.7c4.14,3.55,13.05,5.91,24.37,5.91q3,0,6-.23c3.67,3.58,10.91,5.88,20.2,5.88,15.86,0,31.67-6.71,35.31-15a.49.49,0,0,0,0-.11c9.89-.68,19.16-5,21.45-10.15C415.63,188.46,408.86,183.86,398,183.86Z" style="fill:#fafafa"></path></g><g id="freepik--Shadow--inject-722"><ellipse id="freepik--path--inject-722" cx="250" cy="416.24" rx="193.89" ry="11.32" style="fill:#f5f5f5"></ellipse></g><g id="freepik--Fence--inject-722"><path d="M402.48,411.55s-2.34-10.08,5-17.22c-6.15,2.66-10.65,12.94-8.76,17.22Z" style="fill:#A8BFFF"></path><path d="M404.54,411.55a14.29,14.29,0,0,1,3-10.33c-3.53,1.81-7,6.91-5.22,10.33Z" style="fill:#A8BFFF"></path><path d="M400.64,255.24l-9.2,0a4.25,4.25,0,0,0-4.35,4l-.17,6.28L126.45,282.9l-.61-12.09a4.13,4.13,0,0,0-4.23-3.81H112a4.11,4.11,0,0,0-4.23,4.19l7,140.47h18.09l-1.29-26,252.36-4-.79,30.63,17.94-.06L405,259.47A4.24,4.24,0,0,0,400.64,255.24Zm-41.06,29.29-229.4,73.18L127.3,300ZM153.66,368.26l232.53-74.18-1.81,70.5Z" style="fill:#A8BFFF"></path><path d="M400.64,255.24l-9.2,0a4.25,4.25,0,0,0-4.35,4l-.17,6.28L126.45,282.9l-.61-12.09a4.13,4.13,0,0,0-4.23-3.81H112a4.11,4.11,0,0,0-4.23,4.19l7,140.47h18.09l-1.29-26,252.36-4-.79,30.63,17.94-.06L405,259.47A4.24,4.24,0,0,0,400.64,255.24Zm-41.06,29.29-229.4,73.18L127.3,300ZM153.66,368.26l232.53-74.18-1.81,70.5Z" style="fill:#fff;opacity:0.6000000000000001"></path><path d="M112.14,413s1.63-16.59-4.93-30.56c5.86,5.19,11.06,22.19,8.68,30.56Z" style="fill:#A8BFFF"></path><path d="M109.59,413s2.16-11.94-5.33-22.4c6.19,3.54,11.45,15.71,9.07,22.4Z" style="fill:#A8BFFF"></path><path d="M117.61,413s-1.31-11.94,3.22-22.4c-3.75,3.54-6.93,15.71-5.49,22.4Z" style="fill:#A8BFFF"></path><path d="M386.53,413.29a21.14,21.14,0,0,1,6.69-15.62c-6.15,2.66-12.31,11.34-10.43,15.62Z" style="fill:#A8BFFF"></path><path d="M381.08,413.29a13.65,13.65,0,0,0-1.92-11.45c3.53,1.81,6,8,4.18,11.45Z" style="fill:#A8BFFF"></path></g><g id="freepik--Sunflowers--inject-722"><path d="M133.41,281.81c-7.2-24.16-3-57.25-3-57.25h-2.31s-5,32.48,1.61,56.52S121.75,329,123,354.33s5.11,36.15,5.11,61.91h7.51c-.7-25.76-4.9-36.57-6.79-61.91S140.6,306,133.41,281.81Z" style="fill:#A8BFFF"></path><path d="M124.61,270.68c1.1-6-8.08-22.24-30.47-19.94C93.07,257.07,112,284.72,124.61,270.68Z" style="fill:#A8BFFF"></path><path d="M139.56,284.88c-2.79-6.57,3.51-27.42,29.63-30.54C172,261.29,157.5,297.67,139.56,284.88Z" style="fill:#A8BFFF"></path><path d="M119.71,330.78c5.72-13.89-8.61-31.39-38.44-28.85C82.32,314.89,100.54,351.11,119.71,330.78Z" style="fill:#A8BFFF"></path><path d="M133.93,350.65C129.53,332.83,148,314.82,181,324,178,339.3,152.42,378.94,133.93,350.65Z" style="fill:#A8BFFF"></path><path d="M127.43,364.89s3.06-13.67,11-14.72a3.13,3.13,0,0,1-1.44-1.95,17.51,17.51,0,0,0-10.61,9.56C126.1,360.28,127.43,364.89,127.43,364.89Z" style="fill:#A8BFFF"></path><path d="M125.49,342.39s-2.8-12.54-10.09-13.51a2.88,2.88,0,0,0,1.33-1.78,16.08,16.08,0,0,1,9.73,8.77C126.72,338.16,125.49,342.39,125.49,342.39Z" style="fill:#A8BFFF"></path><path d="M134.85,296.11s2.56-11.57,8.58-12.25a2.72,2.72,0,0,1-1.05-1.7s-5.28,1.28-8.19,7.86A24.13,24.13,0,0,0,134.85,296.11Z" style="fill:#A8BFFF"></path><path d="M130.77,277.65s-4.78-8.45-9.66-7.54a2.27,2.27,0,0,0,.42-1.58s4.44-.27,8.3,4.19A19.82,19.82,0,0,1,130.77,277.65Z" style="fill:#A8BFFF"></path><path d="M129.33,195.49c-.94,4.76-.36,8.89,1.3,9.22s3.78-3.26,4.73-8a16,16,0,0,0-1.3-9.22A16,16,0,0,0,129.33,195.49Z" style="fill:#A8BFFF"></path><path d="M126.32,226.41c-1.67-.34-3.79,3.26-4.73,8a16,16,0,0,0,1.3,9.22,15.94,15.94,0,0,0,4.72-8C128.56,230.86,128,226.74,126.32,226.41Z" style="fill:#A8BFFF"></path><path d="M139.32,217.72c-.33,1.66,3.26,3.78,8,4.72a16,16,0,0,0,9.22-1.29,16,16,0,0,0-8-4.73C143.78,215.47,139.65,216.05,139.32,217.72Z" style="fill:#A8BFFF"></path><path d="M117.63,213.4c.33-1.66-3.26-3.78-8-4.73a16,16,0,0,0-9.22,1.3,16,16,0,0,0,8,4.73C113.17,215.65,117.3,215.07,117.63,213.4Z" style="fill:#A8BFFF"></path><path d="M137.67,209.42c.94,1.41,5,.36,9-2.33a16,16,0,0,0,5.61-7.44,16,16,0,0,0-9,2.33C139.23,204.67,136.73,208,137.67,209.42Z" style="fill:#A8BFFF"></path><path d="M119.28,221.7c-.94-1.41-5-.36-9,2.33a16,16,0,0,0-5.6,7.44,16,16,0,0,0,9-2.33C117.71,226.44,120.22,223.11,119.28,221.7Z" style="fill:#A8BFFF"></path><path d="M134.62,224.75c-1.41.95-.37,5,2.33,9a15.9,15.9,0,0,0,7.43,5.6,15.93,15.93,0,0,0-2.33-9C139.36,226.32,136,223.81,134.62,224.75Z" style="fill:#A8BFFF"></path><path d="M122.33,206.36c1.41-.94.37-5-2.33-9a16,16,0,0,0-7.44-5.6,15.93,15.93,0,0,0,2.33,9C117.59,204.8,120.92,207.31,122.33,206.36Z" style="fill:#A8BFFF"></path><path d="M139.32,213.4c.33,1.67,4.46,2.25,9.22,1.3a16,16,0,0,0,8-4.73,16,16,0,0,0-9.22-1.3C142.58,209.62,139,211.74,139.32,213.4Z" style="fill:#A8BFFF"></path><path d="M117.63,217.72c-.33-1.67-4.46-2.25-9.22-1.3a16,16,0,0,0-8,4.73,16,16,0,0,0,9.22,1.29C114.37,221.5,118,219.38,117.63,217.72Z" style="fill:#A8BFFF"></path><path d="M130.63,226.41c-1.66.33-2.24,4.46-1.3,9.22a16,16,0,0,0,4.73,8,16,16,0,0,0,1.3-9.22C134.41,229.67,132.29,226.07,130.63,226.41Z" style="fill:#A8BFFF"></path><path d="M122.89,187.47a16,16,0,0,0-1.3,9.22c.94,4.76,3.06,8.35,4.73,8s2.24-4.46,1.29-9.22A15.94,15.94,0,0,0,122.89,187.47Z" style="fill:#A8BFFF"></path><path d="M110.26,207.09c4,2.69,8.08,3.74,9,2.33s-1.57-4.75-5.6-7.44a16,16,0,0,0-9-2.33A16,16,0,0,0,110.26,207.09Z" style="fill:#A8BFFF"></path><path d="M146.68,224c-4-2.69-8.07-3.74-9-2.33s1.56,4.74,5.6,7.44a16,16,0,0,0,9,2.33A16,16,0,0,0,146.68,224Z" style="fill:#A8BFFF"></path><path d="M122.33,224.75c-1.41-.94-4.74,1.57-7.44,5.61a15.93,15.93,0,0,0-2.33,9,16,16,0,0,0,7.44-5.6C122.7,229.73,123.74,225.7,122.33,224.75Z" style="fill:#A8BFFF"></path><path d="M134.62,206.36c1.41.95,4.74-1.56,7.43-5.6a16,16,0,0,0,2.33-9,15.9,15.9,0,0,0-7.43,5.6C134.25,201.39,133.21,205.42,134.62,206.36Z" style="fill:#A8BFFF"></path><g style="opacity:0.2"><path d="M129.33,195.49c-.94,4.76-.36,8.89,1.3,9.22s3.78-3.26,4.73-8a16,16,0,0,0-1.3-9.22A16,16,0,0,0,129.33,195.49Z"></path><path d="M126.32,226.41c-1.67-.34-3.79,3.26-4.73,8a16,16,0,0,0,1.3,9.22,15.94,15.94,0,0,0,4.72-8C128.56,230.86,128,226.74,126.32,226.41Z"></path><path d="M139.32,217.72c-.33,1.66,3.26,3.78,8,4.72a16,16,0,0,0,9.22-1.29,16,16,0,0,0-8-4.73C143.78,215.47,139.65,216.05,139.32,217.72Z"></path><path d="M117.63,213.4c.33-1.66-3.26-3.78-8-4.73a16,16,0,0,0-9.22,1.3,16,16,0,0,0,8,4.73C113.17,215.65,117.3,215.07,117.63,213.4Z"></path><path d="M137.67,209.42c.94,1.41,5,.36,9-2.33a16,16,0,0,0,5.61-7.44,16,16,0,0,0-9,2.33C139.23,204.67,136.73,208,137.67,209.42Z"></path><path d="M119.28,221.7c-.94-1.41-5-.36-9,2.33a16,16,0,0,0-5.6,7.44,16,16,0,0,0,9-2.33C117.71,226.44,120.22,223.11,119.28,221.7Z"></path><path d="M134.62,224.75c-1.41.95-.37,5,2.33,9a15.9,15.9,0,0,0,7.43,5.6,15.93,15.93,0,0,0-2.33-9C139.36,226.32,136,223.81,134.62,224.75Z"></path><path d="M122.33,206.36c1.41-.94.37-5-2.33-9a16,16,0,0,0-7.44-5.6,15.93,15.93,0,0,0,2.33,9C117.59,204.8,120.92,207.31,122.33,206.36Z"></path><path d="M139.32,213.4c.33,1.67,4.46,2.25,9.22,1.3a16,16,0,0,0,8-4.73,16,16,0,0,0-9.22-1.3C142.58,209.62,139,211.74,139.32,213.4Z"></path><path d="M117.63,217.72c-.33-1.67-4.46-2.25-9.22-1.3a16,16,0,0,0-8,4.73,16,16,0,0,0,9.22,1.29C114.37,221.5,118,219.38,117.63,217.72Z"></path><path d="M130.63,226.41c-1.66.33-2.24,4.46-1.3,9.22a16,16,0,0,0,4.73,8,16,16,0,0,0,1.3-9.22C134.41,229.67,132.29,226.07,130.63,226.41Z"></path><path d="M122.89,187.47a16,16,0,0,0-1.3,9.22c.94,4.76,3.06,8.35,4.73,8s2.24-4.46,1.29-9.22A15.94,15.94,0,0,0,122.89,187.47Z"></path><path d="M110.26,207.09c4,2.69,8.08,3.74,9,2.33s-1.57-4.75-5.6-7.44a16,16,0,0,0-9-2.33A16,16,0,0,0,110.26,207.09Z"></path><path d="M146.68,224c-4-2.69-8.07-3.74-9-2.33s1.56,4.74,5.6,7.44a16,16,0,0,0,9,2.33A16,16,0,0,0,146.68,224Z"></path><path d="M122.33,224.75c-1.41-.94-4.74,1.57-7.44,5.61a15.93,15.93,0,0,0-2.33,9,16,16,0,0,0,7.44-5.6C122.7,229.73,123.74,225.7,122.33,224.75Z"></path><path d="M134.62,206.36c1.41.95,4.74-1.56,7.43-5.6a16,16,0,0,0,2.33-9,15.9,15.9,0,0,0-7.43,5.6C134.25,201.39,133.21,205.42,134.62,206.36Z"></path></g><path d="M131.24,197.7c0,4.36-1.24,7.91-2.77,7.91s-2.76-3.55-2.76-7.91a14.44,14.44,0,0,1,2.76-7.92A14.41,14.41,0,0,1,131.24,197.7Z" style="fill:#A8BFFF"></path><path d="M125.71,233.42c0-4.37,1.24-7.91,2.76-7.91s2.77,3.54,2.77,7.91a14.36,14.36,0,0,1-2.77,7.91A14.39,14.39,0,0,1,125.71,233.42Z" style="fill:#A8BFFF"></path><path d="M110.61,212.79c4.37,0,7.91,1.24,7.91,2.77s-3.54,2.76-7.91,2.76a14.39,14.39,0,0,1-7.91-2.76A14.36,14.36,0,0,1,110.61,212.79Z" style="fill:#A8BFFF"></path><path d="M146.34,218.32c-4.37,0-7.92-1.23-7.92-2.76s3.55-2.77,7.92-2.77a14.36,14.36,0,0,1,7.91,2.77A14.39,14.39,0,0,1,146.34,218.32Z" style="fill:#A8BFFF"></path><path d="M117.8,201c3.09,3.09,4.71,6.47,3.63,7.55s-4.45-.55-7.54-3.64a14.39,14.39,0,0,1-3.64-7.55A14.39,14.39,0,0,1,117.8,201Z" style="fill:#A8BFFF"></path><path d="M139.15,230.15c-3.09-3.09-4.72-6.47-3.64-7.55s4.46.55,7.55,3.64a14.37,14.37,0,0,1,3.64,7.54A14.42,14.42,0,0,1,139.15,230.15Z" style="fill:#A8BFFF"></path><path d="M113.89,226.24c3.09-3.09,6.47-4.72,7.54-3.64s-.54,4.46-3.63,7.55a14.42,14.42,0,0,1-7.55,3.63A14.37,14.37,0,0,1,113.89,226.24Z" style="fill:#A8BFFF"></path><path d="M143.06,204.88c-3.09,3.09-6.47,4.72-7.55,3.64s.55-4.46,3.64-7.55a14.39,14.39,0,0,1,7.55-3.64A14.39,14.39,0,0,1,143.06,204.88Z" style="fill:#A8BFFF"></path><path d="M113,206.17c4,1.67,6.83,4.17,6.25,5.58s-4.33,1.2-8.37-.47a14.4,14.4,0,0,1-6.25-5.58A14.4,14.4,0,0,1,113,206.17Z" style="fill:#A8BFFF"></path><path d="M143.92,225c-4-1.67-6.84-4.17-6.25-5.58s4.33-1.2,8.36.47a14.34,14.34,0,0,1,6.25,5.58A14.36,14.36,0,0,1,143.92,225Z" style="fill:#A8BFFF"></path><path d="M119.08,231c1.67-4,4.17-6.83,5.58-6.25s1.2,4.33-.47,8.37a14.34,14.34,0,0,1-5.58,6.25A14.4,14.4,0,0,1,119.08,231Z" style="fill:#A8BFFF"></path><path d="M137.86,200.11c-1.67,4-4.17,6.84-5.58,6.25s-1.2-4.33.47-8.36a14.4,14.4,0,0,1,5.59-6.25A14.41,14.41,0,0,1,137.86,200.11Z" style="fill:#A8BFFF"></path><path d="M143.92,206.17c-4,1.67-6.84,4.17-6.25,5.58s4.33,1.2,8.36-.47a14.4,14.4,0,0,0,6.25-5.58A14.36,14.36,0,0,0,143.92,206.17Z" style="fill:#A8BFFF"></path><path d="M113,225c4-1.67,6.83-4.17,6.25-5.58s-4.33-1.2-8.37.47a14.34,14.34,0,0,0-6.25,5.58A14.4,14.4,0,0,0,113,225Z" style="fill:#A8BFFF"></path><path d="M137.86,231c-1.67-4-4.17-6.83-5.58-6.25s-1.2,4.33.47,8.37a14.4,14.4,0,0,0,5.59,6.25A14.44,14.44,0,0,0,137.86,231Z" style="fill:#A8BFFF"></path><path d="M119.08,200.11c1.67,4,4.17,6.84,5.58,6.25s1.2-4.33-.47-8.36a14.34,14.34,0,0,0-5.58-6.25A14.36,14.36,0,0,0,119.08,200.11Z" style="fill:#A8BFFF"></path><circle cx="128.47" cy="215.56" r="14.96" style="fill:#263238"></circle><path d="M370.17,309.77c5.7-19.13,2.39-45.34,2.39-45.34h1.84s4,25.73-1.28,44.77,6.28,37.95,5.32,58-4,28.62-4,49h-5.95c.55-20.41,3.88-29,5.37-49S364.47,328.9,370.17,309.77Z" style="fill:#A8BFFF"></path><path d="M379.1,295.07c.35-4.15,7.42-12.77,21.72-7.28C400.4,292.14,384.87,306.53,379.1,295.07Z" style="fill:#A8BFFF"></path><path d="M363.81,313.78c1-5.58-7.66-20.51-28.36-18.2C334.51,301.45,352.28,326.88,363.81,313.78Z" style="fill:#A8BFFF"></path><path d="M379.59,334.52c-4.3-10.68,8.52-22.49,33.67-18.35C411.87,325.64,395,351,379.59,334.52Z" style="fill:#A8BFFF"></path><path d="M369.94,364.82c3.52-14.49-11.33-26.28-37.72-15C334.65,361.43,355.14,389.28,369.94,364.82Z" style="fill:#A8BFFF"></path><path d="M375.16,375.16s-2.46-10.32-8.83-10.15a3,3,0,0,0,1.16-1.7,11.41,11.41,0,0,1,8.51,6.15C376.22,371.39,375.16,375.16,375.16,375.16Z" style="fill:#A8BFFF"></path><path d="M374.24,342.64s2.87-9,9.07-9.19a2.22,2.22,0,0,1-1.05-1.42,12.86,12.86,0,0,0-8.58,5.73A15.25,15.25,0,0,0,374.24,342.64Z" style="fill:#A8BFFF"></path><path d="M369.47,321.59s-4.07-8.46-8.83-7.9a2.2,2.2,0,0,0,.51-1.5,9.47,9.47,0,0,1,8.58,3.73C370.31,317.51,369.47,321.59,369.47,321.59Z" style="fill:#A8BFFF"></path><path d="M374.08,302s3.21-7,7.12-6.59a1.77,1.77,0,0,1-.43-1.22,8.72,8.72,0,0,0-6.28,3.85A15.87,15.87,0,0,0,374.08,302Z" style="fill:#A8BFFF"></path><path d="M369.82,239.86c1.66,4,1.87,7.73.47,8.31s-3.88-2.2-5.54-6.21a14.29,14.29,0,0,1-.47-8.31A14.29,14.29,0,0,1,369.82,239.86Z" style="fill:#A8BFFF"></path><path d="M377.86,266.43c1.4-.58,3.88,2.2,5.54,6.21a14.29,14.29,0,0,1,.47,8.31,14.29,14.29,0,0,1-5.54-6.21C376.67,270.74,376.46,267,377.86,266.43Z" style="fill:#A8BFFF"></path><path d="M364.94,261.08c.58,1.41-2.2,3.89-6.21,5.55a14.29,14.29,0,0,1-8.31.47,14.34,14.34,0,0,1,6.21-5.55C360.64,259.89,364.36,259.68,364.94,261.08Z" style="fill:#A8BFFF"></path><path d="M383.21,253.52c-.58-1.4,2.2-3.88,6.21-5.54a14.19,14.19,0,0,1,8.31-.47,14.29,14.29,0,0,1-6.21,5.54C387.51,254.71,383.79,254.92,383.21,253.52Z" style="fill:#A8BFFF"></path><path d="M364.94,253.52c-.58,1.4-4.3,1.19-8.31-.47a14.28,14.28,0,0,1-6.21-5.55,14.25,14.25,0,0,1,8.31.48C362.74,249.64,365.52,252.12,364.94,253.52Z" style="fill:#A8BFFF"></path><path d="M383.21,261.08c.58-1.4,4.3-1.19,8.31.47a14.34,14.34,0,0,1,6.21,5.55,14.29,14.29,0,0,1-8.31-.47C385.41,265,382.63,262.49,383.21,261.08Z" style="fill:#A8BFFF"></path><path d="M370.29,266.43c1.4.58,1.19,4.31-.47,8.31a14.29,14.29,0,0,1-5.54,6.21,14.29,14.29,0,0,1,.47-8.31C366.41,268.63,368.89,265.85,370.29,266.43Z" style="fill:#A8BFFF"></path><path d="M377.86,248.17c-1.4-.58-1.19-4.3.47-8.31a14.29,14.29,0,0,1,5.54-6.21,14.29,14.29,0,0,1-.47,8.31C381.74,246,379.26,248.75,377.86,248.17Z" style="fill:#A8BFFF"></path><path d="M364.19,257.3c0,1.52-3.52,2.75-7.86,2.75a14.23,14.23,0,0,1-7.85-2.75,14.26,14.26,0,0,1,7.85-2.74C360.67,254.56,364.19,255.79,364.19,257.3Z" style="fill:#A8BFFF"></path><path d="M384,257.3c0-1.51,3.52-2.74,7.86-2.74a14.31,14.31,0,0,1,7.86,2.74,14.28,14.28,0,0,1-7.86,2.75C387.48,260.05,384,258.82,384,257.3Z" style="fill:#A8BFFF"></path><path d="M374.08,267.19c1.51,0,2.74,3.51,2.74,7.85a14.31,14.31,0,0,1-2.74,7.86,14.28,14.28,0,0,1-2.75-7.86C371.33,270.7,372.56,267.19,374.08,267.19Z" style="fill:#A8BFFF"></path><path d="M374.08,231.7a14.31,14.31,0,0,1,2.74,7.86c0,4.34-1.23,7.86-2.74,7.86s-2.75-3.52-2.75-7.86A14.28,14.28,0,0,1,374.08,231.7Z" style="fill:#A8BFFF"></path><path d="M388.56,246.7c-3.06,3.07-6.42,4.68-7.49,3.61s.54-4.43,3.61-7.5a14.34,14.34,0,0,1,7.5-3.61A14.31,14.31,0,0,1,388.56,246.7Z" style="fill:#A8BFFF"></path><path d="M359.59,267.91c3.07-3.07,6.42-4.69,7.5-3.62s-.55,4.43-3.62,7.5a14.25,14.25,0,0,1-7.5,3.61A14.26,14.26,0,0,1,359.59,267.91Z" style="fill:#A8BFFF"></path><path d="M381.07,264.29c1.07-1.07,4.43.55,7.49,3.62a14.26,14.26,0,0,1,3.62,7.49,14.25,14.25,0,0,1-7.5-3.61C381.61,268.72,380,265.36,381.07,264.29Z" style="fill:#A8BFFF"></path><path d="M367.09,250.31c-1.08,1.07-4.43-.54-7.5-3.61a14.31,14.31,0,0,1-3.62-7.5,14.34,14.34,0,0,1,7.5,3.61C366.54,245.88,368.16,249.24,367.09,250.31Z" style="fill:#A8BFFF"></path><g style="opacity:0.2"><path d="M369.82,239.86c1.66,4,1.87,7.73.47,8.31s-3.88-2.2-5.54-6.21a14.29,14.29,0,0,1-.47-8.31A14.29,14.29,0,0,1,369.82,239.86Z"></path><path d="M377.86,266.43c1.4-.58,3.88,2.2,5.54,6.21a14.29,14.29,0,0,1,.47,8.31,14.29,14.29,0,0,1-5.54-6.21C376.67,270.74,376.46,267,377.86,266.43Z"></path><path d="M364.94,261.08c.58,1.41-2.2,3.89-6.21,5.55a14.29,14.29,0,0,1-8.31.47,14.34,14.34,0,0,1,6.21-5.55C360.64,259.89,364.36,259.68,364.94,261.08Z"></path><path d="M383.21,253.52c-.58-1.4,2.2-3.88,6.21-5.54a14.19,14.19,0,0,1,8.31-.47,14.29,14.29,0,0,1-6.21,5.54C387.51,254.71,383.79,254.92,383.21,253.52Z"></path><path d="M364.94,253.52c-.58,1.4-4.3,1.19-8.31-.47a14.28,14.28,0,0,1-6.21-5.55,14.25,14.25,0,0,1,8.31.48C362.74,249.64,365.52,252.12,364.94,253.52Z"></path><path d="M383.21,261.08c.58-1.4,4.3-1.19,8.31.47a14.34,14.34,0,0,1,6.21,5.55,14.29,14.29,0,0,1-8.31-.47C385.41,265,382.63,262.49,383.21,261.08Z"></path><path d="M370.29,266.43c1.4.58,1.19,4.31-.47,8.31a14.29,14.29,0,0,1-5.54,6.21,14.29,14.29,0,0,1,.47-8.31C366.41,268.63,368.89,265.85,370.29,266.43Z"></path><path d="M377.86,248.17c-1.4-.58-1.19-4.3.47-8.31a14.29,14.29,0,0,1,5.54-6.21,14.29,14.29,0,0,1-.47,8.31C381.74,246,379.26,248.75,377.86,248.17Z"></path><path d="M364.19,257.3c0,1.52-3.52,2.75-7.86,2.75a14.23,14.23,0,0,1-7.85-2.75,14.26,14.26,0,0,1,7.85-2.74C360.67,254.56,364.19,255.79,364.19,257.3Z"></path><path d="M384,257.3c0-1.51,3.52-2.74,7.86-2.74a14.31,14.31,0,0,1,7.86,2.74,14.28,14.28,0,0,1-7.86,2.75C387.48,260.05,384,258.82,384,257.3Z"></path><path d="M374.08,267.19c1.51,0,2.74,3.51,2.74,7.85a14.31,14.31,0,0,1-2.74,7.86,14.28,14.28,0,0,1-2.75-7.86C371.33,270.7,372.56,267.19,374.08,267.19Z"></path><path d="M374.08,231.7a14.31,14.31,0,0,1,2.74,7.86c0,4.34-1.23,7.86-2.74,7.86s-2.75-3.52-2.75-7.86A14.28,14.28,0,0,1,374.08,231.7Z"></path><path d="M388.56,246.7c-3.06,3.07-6.42,4.68-7.49,3.61s.54-4.43,3.61-7.5a14.34,14.34,0,0,1,7.5-3.61A14.31,14.31,0,0,1,388.56,246.7Z"></path><path d="M359.59,267.91c3.07-3.07,6.42-4.69,7.5-3.62s-.55,4.43-3.62,7.5a14.25,14.25,0,0,1-7.5,3.61A14.26,14.26,0,0,1,359.59,267.91Z"></path><path d="M381.07,264.29c1.07-1.07,4.43.55,7.49,3.62a14.26,14.26,0,0,1,3.62,7.49,14.25,14.25,0,0,1-7.5-3.61C381.61,268.72,380,265.36,381.07,264.29Z"></path><path d="M367.09,250.31c-1.08,1.07-4.43-.54-7.5-3.61a14.31,14.31,0,0,1-3.62-7.5,14.34,14.34,0,0,1,7.5,3.61C366.54,245.88,368.16,249.24,367.09,250.31Z"></path></g><path d="M368.62,242.36c.75,3.77,2.43,6.61,3.75,6.35s1.78-3.53,1-7.3a12.69,12.69,0,0,0-3.75-6.36A12.68,12.68,0,0,0,368.62,242.36Z" style="fill:#A8BFFF"></path><path d="M379.53,272.25c-.75-3.78-2.43-6.62-3.74-6.36s-1.78,3.53-1,7.3a12.65,12.65,0,0,0,3.74,6.36A12.64,12.64,0,0,0,379.53,272.25Z" style="fill:#A8BFFF"></path><path d="M389,251.85c-3.77.75-6.62,2.42-6.35,3.74s3.53,1.78,7.3,1a12.65,12.65,0,0,0,6.35-3.74A12.64,12.64,0,0,0,389,251.85Z" style="fill:#A8BFFF"></path><path d="M359.13,262.75c3.77-.75,6.62-2.42,6.36-3.74s-3.54-1.78-7.31-1a12.63,12.63,0,0,0-6.35,3.75A12.68,12.68,0,0,0,359.13,262.75Z" style="fill:#A8BFFF"></path><path d="M380.79,242.88c-2.14,3.2-3,6.39-1.85,7.14s3.76-1.24,5.89-4.44a12.65,12.65,0,0,0,1.85-7.14A12.62,12.62,0,0,0,380.79,242.88Z" style="fill:#A8BFFF"></path><path d="M367.37,271.72c2.13-3.19,3-6.39,1.84-7.14s-3.75,1.24-5.89,4.44a12.65,12.65,0,0,0-1.85,7.14A12.67,12.67,0,0,0,367.37,271.72Z" style="fill:#A8BFFF"></path><path d="M388.5,264c-3.2-2.13-6.39-3-7.14-1.84s1.24,3.75,4.44,5.89a12.68,12.68,0,0,0,7.14,1.84A12.67,12.67,0,0,0,388.5,264Z" style="fill:#A8BFFF"></path><path d="M359.65,250.59c3.2,2.14,6.4,3,7.14,1.85s-1.24-3.76-4.43-5.9a12.69,12.69,0,0,0-7.14-1.84A12.69,12.69,0,0,0,359.65,250.59Z" style="fill:#A8BFFF"></path><path d="M385.8,246.54c-3.2,2.14-5.19,4.78-4.44,5.9s3.94.29,7.14-1.85a12.67,12.67,0,0,0,4.44-5.89A12.68,12.68,0,0,0,385.8,246.54Z" style="fill:#A8BFFF"></path><path d="M362.36,268.06c3.19-2.14,5.18-4.78,4.43-5.89s-3.94-.29-7.14,1.84a12.69,12.69,0,0,0-4.43,5.89A12.69,12.69,0,0,0,362.36,268.06Z" style="fill:#A8BFFF"></path><path d="M384.83,269c-2.13-3.2-4.77-5.18-5.89-4.44s-.29,3.95,1.85,7.14a12.62,12.62,0,0,0,5.89,4.44A12.65,12.65,0,0,0,384.83,269Z" style="fill:#A8BFFF"></path><path d="M363.32,245.58c2.14,3.2,4.77,5.19,5.89,4.44s.29-3.94-1.84-7.14a12.67,12.67,0,0,0-5.9-4.44A12.65,12.65,0,0,0,363.32,245.58Z" style="fill:#A8BFFF"></path><path d="M359.13,251.85c3.77.75,6.62,2.42,6.36,3.74s-3.54,1.78-7.31,1a12.65,12.65,0,0,1-6.35-3.74A12.64,12.64,0,0,1,359.13,251.85Z" style="fill:#A8BFFF"></path><path d="M389,262.75c-3.77-.75-6.62-2.42-6.35-3.74s3.53-1.78,7.3-1a12.63,12.63,0,0,1,6.35,3.75A12.68,12.68,0,0,1,389,262.75Z" style="fill:#A8BFFF"></path><path d="M368.62,272.25c.75-3.78,2.43-6.62,3.75-6.36s1.78,3.53,1,7.3a12.63,12.63,0,0,1-3.75,6.36A12.64,12.64,0,0,1,368.62,272.25Z" style="fill:#A8BFFF"></path><path d="M379.53,242.36c-.75,3.77-2.43,6.61-3.74,6.35s-1.78-3.53-1-7.3a12.71,12.71,0,0,1,3.74-6.36A12.68,12.68,0,0,1,379.53,242.36Z" style="fill:#A8BFFF"></path><path d="M363.53,259.4A10.76,10.76,0,1,0,372,246.75,10.75,10.75,0,0,0,363.53,259.4Z" style="fill:#263238"></path></g><g id="freepik--Character--inject-722"><path d="M236.39,178c-.22,1.13-.43,2-.69,3l-.78,2.88c-.54,1.9-1.17,3.77-1.79,5.63-1.25,3.72-2.67,7.37-4.18,11l-.15.34-.18.42c-.14.29-.26.58-.41.85-.29.55-.6,1.06-.93,1.56a21.26,21.26,0,0,1-2.15,2.67,30.3,30.3,0,0,1-4.87,4.14A47,47,0,0,1,209.42,216l-1.69-3.65c1.49-1,3.07-2.06,4.52-3.18a46.27,46.27,0,0,0,4.2-3.49c2.62-2.42,4.84-5,5.61-7.77,1.2-3.61,2.33-7.22,3.44-10.83.55-1.8,1.05-3.61,1.55-5.41l.74-2.7.65-2.59Z" style="fill:#ff8b7b"></path><path d="M230.28,167.37c-3.39,1.08-4.95,15.38-4.95,15.38l9.86,5.88s8.24-14.82,5.37-18.45S235.22,165.79,230.28,167.37Z" style="fill:#A8BFFF"></path><path d="M230.28,167.37c-3.39,1.08-4.95,15.38-4.95,15.38l9.86,5.88s8.24-14.82,5.37-18.45S235.22,165.79,230.28,167.37Z" style="fill:#A8BFFF"></path><polygon points="230.78 170.51 228.99 184.94 234.53 188.23 230.78 170.51" style="opacity:0.30000000000000004"></polygon><path d="M208.42,212.22l-8.26-.19,5.39,6.67s4.5-.78,5-4.22Z" style="fill:#ff8b7b"></path><polygon points="196.41 216.07 198.87 220.93 205.55 218.7 200.16 212.03 196.41 216.07" style="fill:#ff8b7b"></polygon><path d="M230.28,167.37s-3.9,1.63,7,50.14l33.9-2c-1.39-13.77-1.91-22.27,3-51a98.94,98.94,0,0,0-14.51-1,106.76,106.76,0,0,0-15.39.92C237.68,165.38,230.28,167.37,230.28,167.37Z" style="fill:#A8BFFF"></path><path d="M273.28,166.16c-3.95-.95-5.56,4-6.78,8.65-.94,3.64,2.23,12.5,4.12,15.71.5-6.21,1.49-13.82,3.22-24.14A2.32,2.32,0,0,0,273.28,166.16Z" style="opacity:0.30000000000000004"></path><path d="M294.11,125.75c-7.28-12.72-24.53.11-28.71,2.86l1.27,3.35c21.5-3.27,14.57,19.07,30.44,23.28,13.3,3.53,23.45-11.17,20.11-23.28C312.72,139,301,137.81,294.11,125.75Z" style="fill:#263238"></path><path d="M255.49,133.38c-1.92-4.19,1.91-13.09,12.9-10.21,12.44,3.25,4.44,20.46-1.88,16.77C259.68,136,257.58,137.94,255.49,133.38Z" style="fill:#A8BFFF"></path><path d="M238.17,138.48c-3.06-6.67,3.05-20.87,20.58-16.29,19.84,5.19,7.08,32.64-3,26.75C244.85,142.58,241.5,145.77,238.17,138.48Z" style="fill:#263238"></path><path d="M259.3,146.71l-9.3.41c2.88,1.12,3.28,2.54,5.44,4.19,3.09,2.37,5.68,1.14,5.68,1.14S257.46,149.63,259.3,146.71Z" style="fill:#263238"></path><path d="M257.21,148l-9.3-.14c2.8,1.29,3.12,2.73,5.18,4.51,2.94,2.54,5.6,1.47,5.6,1.47S255.21,150.75,257.21,148Z" style="fill:#263238"></path><path d="M259.65,163.46c-3.66-3.09-3.23-12.23-2.55-17.24l-9,8.63c1.19,3.79,1.57,7.88-3.87,9.53-3.37.51-6.95,1.28-9.64,1.91,1,2.91,9.14,14.54,14.4,14.23,3.79-.22,16.83-13.92,19.71-16.66C266.15,163.63,262.91,163.42,259.65,163.46Z" style="fill:#ff8b7b"></path><path d="M253.44,149.75l-5.31,5.1a15.65,15.65,0,0,1,.64,2.71c2.09-.43,4.85-2.92,4.94-5.15A7.34,7.34,0,0,0,253.44,149.75Z" style="opacity:0.2"></path><path d="M261.14,137.1c-1.45,8.18-1.89,11.67-6.53,15.41-7,5.64-16.7,2.07-17.72-6.37-.92-7.6,1.61-19.69,10-22A11.32,11.32,0,0,1,261.14,137.1Z" style="fill:#ff8b7b"></path><path d="M238.8,126.86c.62,2.7,2.93,4.11,8.1,4.09,4.17,0,5.87,3.45,9.49,5.13,5.2,2.4,7.3-3.26,7.3-3.26s-1.5-3.43-4.15-8.79C254.5,113.86,236.71,117.78,238.8,126.86Z" style="fill:#263238"></path><path d="M257.21,130.28c-4.64-.86-1.8,9.29,2.33,11.58S276,133.74,257.21,130.28Z" style="fill:#263238"></path><path d="M238.32,132.63a.37.37,0,0,1-.24-.17.39.39,0,0,1,.13-.55,4,4,0,0,1,3.59-.37.39.39,0,0,1,.19.53.39.39,0,0,1-.52.19,3.14,3.14,0,0,0-2.84.33A.38.38,0,0,1,238.32,132.63Z" style="fill:#263238"></path><path d="M237.27,217.51s-2.43,55.87-3.41,86.59a15.4,15.4,0,0,0,.38,3.88c6.73,29.15,15.37,98.71,15.37,98.71h6.61s1.25-58.35-4.77-98.73C256.17,280.7,262.1,216,262.1,216Z" style="fill:#ff8b7b"></path><path d="M256.78,393.53s-5.22.33-9.11.72c.55,3.72,1.16,10.49,1.16,10.49l7.95.79C256.94,402,256.78,393.53,256.78,393.53Z" style="fill:#A8BFFF"></path><path d="M248.46,403.68h9.39a.66.66,0,0,1,.67.57l1,6.84a1.35,1.35,0,0,1-1.16,1.63c-3.26.32-4.85.31-8.95.79-2.53.29-6.43,1.48-11.41,1.48-3.43,0-3.72-3.61-2.23-3.79,8.45-1,9.13-5.16,11.34-7A2.21,2.21,0,0,1,248.46,403.68Z" style="fill:#263238"></path><path d="M245.32,405.14a3.13,3.13,0,0,1-2-.52,1.11,1.11,0,0,1-.36-1,.64.64,0,0,1,.34-.53c1-.56,4.36,1.14,4.73,1.34a.2.2,0,0,1,.11.2.2.2,0,0,1-.16.17A14.33,14.33,0,0,1,245.32,405.14Zm-1.49-1.73a.76.76,0,0,0-.37.07.24.24,0,0,0-.13.21.7.7,0,0,0,.23.64c.5.45,1.88.53,3.73.23A10.56,10.56,0,0,0,243.83,403.41Z" style="fill:#A8BFFF"></path><path d="M247.91,404.84a.12.12,0,0,1-.08,0c-1-.45-3-2.25-2.81-3.2,0-.22.19-.5.74-.56a1.48,1.48,0,0,1,1.1.35c1,.87,1.24,3.12,1.25,3.22a.25.25,0,0,1-.08.18Zm-2-3.39h-.12c-.36,0-.39.18-.39.23-.1.57,1.24,2,2.26,2.6a4.59,4.59,0,0,0-1.07-2.58A1,1,0,0,0,245.92,401.45Z" style="fill:#A8BFFF"></path><path d="M246.22,217s12.78,62.54,17.67,87a15,15,0,0,0,2.51,5.8c16.45,23,44.78,69.73,44.78,69.73l5.07-3.35s-19.79-51.66-34.67-73.83c-1.74-29.26-.31-68.65-10.41-86.81Z" style="fill:#ff8b7b"></path><g style="opacity:0.2"><path d="M256,274.35c-.64,5.45-1.3,10.8-2,15.81-1.95,1.21-3.86,2.72-5.78,2.68-3.3-.07-6.29-4.23-9.32-4.51a9.7,9.7,0,0,0-4.61,1.18c.18-4.87.37-10,.57-15.16Z"></path><path d="M280.9,286.72a9.67,9.67,0,0,0-4.52-.51c-3.08.71-5.54,5.2-8.7,5.61-2.14.28-4.45-1.31-6.7-2.33-1-4.72-2-9.86-3.07-15.14h22.57C280.63,278.51,280.76,282.65,280.9,286.72Z"></path></g><path d="M303.81,368.67s4.71-2.28,8.29-3.85c1.34,3.52,4.13,9.71,4.13,9.71l-6.53,4.59C307.81,376.1,303.81,368.67,303.81,368.67Z" style="fill:#A8BFFF"></path><path d="M292.64,279.68c-2.56,1.46-3.39,3.82-6.38,4.8s-7.1-2.09-10.27-1.46-5.68,5-8.85,5.36-6.63-3.48-9.79-3.41-6.5,4-9.62,3.88c-3.29-.16-6.16-4.41-9.19-4.77-3.4-.4-7.2,3-10.07,2.46-3.22-.64-5.21-4.42-7.35-5.87,2.83-14.06,10.13-48.6,16.16-63.16l33.9-2C280.92,225.43,282.68,259.21,292.64,279.68Z" style="fill:#263238"></path><path d="M235.32,214.23c-.25,1.58.38,2.63.38,3.44s-.41,2,.08,2.78,36.67-.74,37.08-4.09-.47-5.5-1.46-5.13a136.32,136.32,0,0,1-17.71,2.42C245.41,214.29,235.55,212.77,235.32,214.23Z" style="fill:#A8BFFF"></path><path d="M235.32,214.23c-.25,1.58.38,2.63.38,3.44s-.41,2,.08,2.78,36.67-.74,37.08-4.09-.47-5.5-1.46-5.13a136.32,136.32,0,0,1-17.71,2.42C245.41,214.29,235.55,212.77,235.32,214.23Z" style="fill:#fff;opacity:0.5"></path><path d="M247.69,285.77h-.19c-1.89-.09-3.57-1.35-5.2-2.57-1.4-1.05-2.73-2.05-4-2.2-1.57-.19-3.31.55-5,1.27s-3.53,1.5-5.1,1.18c-2.24-.45-3.88-2.25-5.33-3.83-.51-.56-1-1.08-1.46-1.51a.5.5,0,0,1,.68-.74c.51.47,1,1,1.52,1.57,1.41,1.55,2.87,3.15,4.78,3.53,1.28.26,2.85-.41,4.52-1.12s3.67-1.56,5.51-1.35c1.58.19,3.07,1.31,4.52,2.4s3.07,2.29,4.64,2.37,3-.86,4.56-1.83,3.29-2,5-2.05a11.12,11.12,0,0,1,5,1.77c1.61.88,3.29,1.79,4.78,1.64s3-1.4,4.36-2.6,2.84-2.43,4.46-2.75,3.46.25,5.23.8,3.58,1.13,5,.67a7.7,7.7,0,0,0,3.36-2.37A15,15,0,0,1,291,276.4a.5.5,0,0,1,.6.81,12.72,12.72,0,0,0-1.64,1.53,8.61,8.61,0,0,1-3.77,2.63c-1.71.56-3.68-.06-5.59-.66a10.51,10.51,0,0,0-4.74-.78c-1.36.27-2.64,1.37-4,2.53-1.52,1.3-3.1,2.65-4.91,2.83s-3.61-.8-5.36-1.75c-1.58-.86-3.05-1.69-4.47-1.65s-3,1-4.52,1.9S249.36,285.77,247.69,285.77Z" style="fill:#fff"></path><path d="M308.62,379l7.69-5.39a.67.67,0,0,1,.88.09l5.14,5.47a1.34,1.34,0,0,1-.25,2c-2.71,1.83-4.12,2.58-7.5,5-2.08,1.46-5,3.8-7.85,5.81s-5-.72-4-1.81c4.56-4.92,4.29-7.1,5-9.89A2.17,2.17,0,0,1,308.62,379Z" style="fill:#263238"></path><path d="M305.43,382.36a1.16,1.16,0,0,1-.75-.65.67.67,0,0,1,0-.68c.54-.92,3.56-1,3.9-1a.19.19,0,0,1,.19.11.22.22,0,0,1,0,.22c-.74.83-2.14,2.2-3.19,2.06Zm2.7-2c-1.21.09-2.82.35-3.1.83a.27.27,0,0,0,0,.3.74.74,0,0,0,.57.46C306.17,382.06,307.1,381.48,308.13,380.4Z" style="fill:#A8BFFF"></path><path d="M307.23,380.22c-.94-.23-2-.68-2.19-1.24a.69.69,0,0,1,.23-.83,1,1,0,0,1,.84-.27c1.2.14,2.59,2.11,2.65,2.19a.2.2,0,0,1,0,.2.21.21,0,0,1-.16.11A4.76,4.76,0,0,1,307.23,380.22Zm-1-1.92-.13,0a.64.64,0,0,0-.53.16c-.19.17-.17.29-.13.38.24.54,1.79,1.1,2.81,1.17A4.93,4.93,0,0,0,306.19,378.3Z" style="fill:#A8BFFF"></path><path d="M248.39,138c-.07.67-.49,1.17-.93,1.12s-.73-.63-.65-1.3.49-1.17.93-1.12S248.47,137.3,248.39,138Z" style="fill:#263238"></path><path d="M240.82,137.1c-.08.67-.5,1.17-.93,1.12s-.73-.63-.66-1.3.5-1.18.94-1.12S240.9,136.43,240.82,137.1Z" style="fill:#263238"></path><path d="M240.35,135.85l-1.55-.64S239.48,136.56,240.35,135.85Z" style="fill:#263238"></path><path d="M242.69,138.48a17.89,17.89,0,0,1-2.88,4,2.91,2.91,0,0,0,2.34.73Z" style="fill:#ff5652"></path><path d="M245.34,146.15a7.36,7.36,0,0,1-1.14,0,.19.19,0,0,1-.17-.22.2.2,0,0,1,.22-.18,5.36,5.36,0,0,0,4.56-1.57.2.2,0,0,1,.31.25A5.56,5.56,0,0,1,245.34,146.15Z" style="fill:#263238"></path><path d="M262.51,142.94a6,6,0,0,1-3.08,3.46c-1.92.92-3.24-.71-3-2.72.21-1.8,1.46-4.44,3.53-4.52A2.73,2.73,0,0,1,262.51,142.94Z" style="fill:#ff8b7b"></path><path d="M250.94,135.54a.4.4,0,0,1-.25-.19,3.14,3.14,0,0,0-2.36-1.62.41.41,0,0,1-.37-.42.38.38,0,0,1,.41-.37,3.91,3.91,0,0,1,3,2,.39.39,0,0,1-.14.54A.42.42,0,0,1,250.94,135.54Z" style="fill:#263238"></path><path d="M278.53,174.54c.64,4.13,1.46,8.45,2.41,12.61a94.85,94.85,0,0,0,3.58,12.15c.35,1,.78,1.89,1.18,2.84.21.45.4.85.63,1.3s.47.9.73,1.36c1,1.83,2.16,3.69,3.3,5.55,2.27,3.74,4.64,7.48,6.91,11.26l-3.17,2.47C291,220.86,288,217.5,285.19,214c-1.42-1.75-2.79-3.55-4.12-5.47-.33-.47-.66-1-1-1.49s-.66-1.08-.95-1.62c-.53-1.06-1.11-2.13-1.57-3.21a81.2,81.2,0,0,1-4.46-13.15,111.12,111.12,0,0,1-2.63-13.48Z" style="fill:#ff8b7b"></path><path d="M274.16,164.51c3.46.83,8.24,12.28,8.24,12.28l-11.11,10.7s-6.89-10-5.73-14.45C266.77,168.38,270.22,163.56,274.16,164.51Z" style="fill:#A8BFFF"></path><path d="M247.93,136.73l-1.56-.65S247.05,137.43,247.93,136.73Z" style="fill:#263238"></path><path d="M295.47,220.26l8.08,4.06-7.82,3.35s-4.23-3.31-3.64-6.73Z" style="fill:#ff8b7b"></path><polygon points="306.55 230.67 299.86 233.12 295.73 227.67 303.55 224.31 306.55 230.67" style="fill:#ff8b7b"></polygon></g></svg>